<?xml version="1.0" standalone="no"?>
<!DOCTYPE svg PUBLIC "-//W3C//DTD SVG 20010904//EN"
 "http://www.w3.org/TR/2001/REC-SVG-20010904/DTD/svg10.dtd">
<svg version="1.0" xmlns="http://www.w3.org/2000/svg"
 width="700.000000pt" height="700.000000pt" viewBox="0 0 700.000000 700.000000"
 preserveAspectRatio="xMidYMid meet">
<metadata>
Created by potrace 1.11, written by Peter Selinger 2001-2013
</metadata>
<g transform="translate(0.000000,700.000000) scale(0.100000,-0.100000)"
fill="#000000" stroke="none">
<path d="M5712 6413 l3 -587 570 -1 c314 0 577 2 585 6 13 6 15 78 13 571 -1
309 -2 571 -2 581 -1 16 -36 17 -586 17 l-585 0 2 -587z"/>
<path d="M4019 6508 c0 -4 0 -246 0 -538 0 -291 0 -552 0 -579 l1 -48 585 0
585 1 0 586 0 586 -585 0 c-322 0 -585 -3 -586 -8z"/>
<path d="M119 5852 c-1 -22 -1 -5812 0 -5834 1 -17 148 -18 2934 -18 l2932 0
0 1760 0 1760 -482 0 -483 0 0 -155 0 -155 -1000 0 c-793 0 -1000 3 -1001 13
-3 54 -1 1978 2 1982 3 2 143 5 311 5 l307 1 -2 327 -2 327 -1757 2 c-1643 2
-1758 1 -1759 -15z"/>
<path d="M5188 5102 c-18 -2 -28 -10 -29 -20 -1 -23 -1 -1123 0 -1139 1 -10
125 -13 586 -13 l585 0 0 585 0 585 -312 0 c-172 0 -423 2 -558 3 -135 1 -257
1 -272 -1z"/>
<path d="M3430 4211 l0 -586 588 0 587 0 0 583 c0 509 -2 583 -15 586 -8 2
-273 4 -587 4 l-573 0 0 -587z"/>
</g>
</svg>
