<svg xmlns="http://www.w3.org/2000/svg" width="134" height="155"><rect x="0" y="0" width="100%" height="100%" fill="rgb(218,83,44)"></rect><polyline points="0,12.932646029847616,7.466666666666667,0,22.4,0,29.866666666666667,12.932646029847616,22.4,25.865292059695232,7.466666666666667,25.865292059695232,0,12.932646029847616" fill="#ddd" fill-opacity="0.03733333333333333" stroke="#000" stroke-opacity="0.02" transform="translate(-14.933333333333334,-12.932646029847616)"></polyline><polyline points="0,12.932646029847616,7.466666666666667,0,22.4,0,29.866666666666667,12.932646029847616,22.4,25.865292059695232,7.466666666666667,25.865292059695232,0,12.932646029847616" fill="#ddd" fill-opacity="0.03733333333333333" stroke="#000" stroke-opacity="0.02" transform="translate(119.46666666666664,-12.932646029847616)"></polyline><polyline points="0,12.932646029847616,7.466666666666667,0,22.4,0,29.866666666666667,12.932646029847616,22.4,25.865292059695232,7.466666666666667,25.865292059695232,0,12.932646029847616" fill="#ddd" fill-opacity="0.03733333333333333" stroke="#000" stroke-opacity="0.02" transform="translate(-14.933333333333334,142.25910632832378)"></polyline><polyline points="0,12.932646029847616,7.466666666666667,0,22.4,0,29.866666666666667,12.932646029847616,22.4,25.865292059695232,7.466666666666667,25.865292059695232,0,12.932646029847616" fill="#ddd" fill-opacity="0.03733333333333333" stroke="#000" stroke-opacity="0.02" transform="translate(119.46666666666664,142.25910632832375)"></polyline><polyline points="0,12.932646029847616,7.466666666666667,0,22.4,0,29.866666666666667,12.932646029847616,22.4,25.865292059695232,7.466666666666667,25.865292059695232,0,12.932646029847616" fill="#222" fill-opacity="0.13266666666666665" stroke="#000" stroke-opacity="0.02" transform="translate(7.466666666666665,0)"></polyline><polyline points="0,12.932646029847616,7.466666666666667,0,22.4,0,29.866666666666667,12.932646029847616,22.4,25.865292059695232,7.466666666666667,25.865292059695232,0,12.932646029847616" fill="#222" fill-opacity="0.13266666666666665" stroke="#000" stroke-opacity="0.02" transform="translate(7.466666666666665,155.19175235817139)"></polyline><polyline points="0,12.932646029847616,7.466666666666667,0,22.4,0,29.866666666666667,12.932646029847616,22.4,25.865292059695232,7.466666666666667,25.865292059695232,0,12.932646029847616" fill="#222" fill-opacity="0.08066666666666666" stroke="#000" stroke-opacity="0.02" transform="translate(29.866666666666664,-12.932646029847616)"></polyline><polyline points="0,12.932646029847616,7.466666666666667,0,22.4,0,29.866666666666667,12.932646029847616,22.4,25.865292059695232,7.466666666666667,25.865292059695232,0,12.932646029847616" fill="#222" fill-opacity="0.08066666666666666" stroke="#000" stroke-opacity="0.02" transform="translate(29.866666666666664,142.25910632832378)"></polyline><polyline points="0,12.932646029847616,7.466666666666667,0,22.4,0,29.866666666666667,12.932646029847616,22.4,25.865292059695232,7.466666666666667,25.865292059695232,0,12.932646029847616" fill="#222" fill-opacity="0.028666666666666667" stroke="#000" stroke-opacity="0.02" transform="translate(52.26666666666665,0)"></polyline><polyline points="0,12.932646029847616,7.466666666666667,0,22.4,0,29.866666666666667,12.932646029847616,22.4,25.865292059695232,7.466666666666667,25.865292059695232,0,12.932646029847616" fill="#222" fill-opacity="0.028666666666666667" stroke="#000" stroke-opacity="0.02" transform="translate(52.26666666666665,155.19175235817139)"></polyline><polyline points="0,12.932646029847616,7.466666666666667,0,22.4,0,29.866666666666667,12.932646029847616,22.4,25.865292059695232,7.466666666666667,25.865292059695232,0,12.932646029847616" fill="#ddd" fill-opacity="0.05466666666666667" stroke="#000" stroke-opacity="0.02" transform="translate(74.66666666666666,-12.932646029847616)"></polyline><polyline points="0,12.932646029847616,7.466666666666667,0,22.4,0,29.866666666666667,12.932646029847616,22.4,25.865292059695232,7.466666666666667,25.865292059695232,0,12.932646029847616" fill="#ddd" fill-opacity="0.05466666666666667" stroke="#000" stroke-opacity="0.02" transform="translate(74.66666666666666,142.25910632832378)"></polyline><polyline points="0,12.932646029847616,7.466666666666667,0,22.4,0,29.866666666666667,12.932646029847616,22.4,25.865292059695232,7.466666666666667,25.865292059695232,0,12.932646029847616" fill="#ddd" fill-opacity="0.12400000000000001" stroke="#000" stroke-opacity="0.02" transform="translate(97.06666666666666,0)"></polyline><polyline points="0,12.932646029847616,7.466666666666667,0,22.4,0,29.866666666666667,12.932646029847616,22.4,25.865292059695232,7.466666666666667,25.865292059695232,0,12.932646029847616" fill="#ddd" fill-opacity="0.12400000000000001" stroke="#000" stroke-opacity="0.02" transform="translate(97.06666666666666,155.19175235817139)"></polyline><polyline points="0,12.932646029847616,7.466666666666667,0,22.4,0,29.866666666666667,12.932646029847616,22.4,25.865292059695232,7.466666666666667,25.865292059695232,0,12.932646029847616" fill="#ddd" fill-opacity="0.12400000000000001" stroke="#000" stroke-opacity="0.02" transform="translate(-14.933333333333334,12.932646029847616)"></polyline><polyline points="0,12.932646029847616,7.466666666666667,0,22.4,0,29.866666666666667,12.932646029847616,22.4,25.865292059695232,7.466666666666667,25.865292059695232,0,12.932646029847616" fill="#ddd" fill-opacity="0.12400000000000001" stroke="#000" stroke-opacity="0.02" transform="translate(119.46666666666664,12.932646029847616)"></polyline><polyline points="0,12.932646029847616,7.466666666666667,0,22.4,0,29.866666666666667,12.932646029847616,22.4,25.865292059695232,7.466666666666667,25.865292059695232,0,12.932646029847616" fill="#222" fill-opacity="0.15" stroke="#000" stroke-opacity="0.02" transform="translate(7.466666666666665,25.86529205969523)"></polyline><polyline points="0,12.932646029847616,7.466666666666667,0,22.4,0,29.866666666666667,12.932646029847616,22.4,25.865292059695232,7.466666666666667,25.865292059695232,0,12.932646029847616" fill="#ddd" fill-opacity="0.14133333333333334" stroke="#000" stroke-opacity="0.02" transform="translate(29.866666666666664,12.932646029847616)"></polyline><polyline points="0,12.932646029847616,7.466666666666667,0,22.4,0,29.866666666666667,12.932646029847616,22.4,25.865292059695232,7.466666666666667,25.865292059695232,0,12.932646029847616" fill="#222" fill-opacity="0.15" stroke="#000" stroke-opacity="0.02" transform="translate(52.26666666666665,25.86529205969523)"></polyline><polyline points="0,12.932646029847616,7.466666666666667,0,22.4,0,29.866666666666667,12.932646029847616,22.4,25.865292059695232,7.466666666666667,25.865292059695232,0,12.932646029847616" fill="#222" fill-opacity="0.15" stroke="#000" stroke-opacity="0.02" transform="translate(74.66666666666666,12.932646029847616)"></polyline><polyline points="0,12.932646029847616,7.466666666666667,0,22.4,0,29.866666666666667,12.932646029847616,22.4,25.865292059695232,7.466666666666667,25.865292059695232,0,12.932646029847616" fill="#ddd" fill-opacity="0.05466666666666667" stroke="#000" stroke-opacity="0.02" transform="translate(97.06666666666666,25.86529205969523)"></polyline><polyline points="0,12.932646029847616,7.466666666666667,0,22.4,0,29.866666666666667,12.932646029847616,22.4,25.865292059695232,7.466666666666667,25.865292059695232,0,12.932646029847616" fill="#222" fill-opacity="0.11533333333333334" stroke="#000" stroke-opacity="0.02" transform="translate(-14.933333333333334,38.797938089542846)"></polyline><polyline points="0,12.932646029847616,7.466666666666667,0,22.4,0,29.866666666666667,12.932646029847616,22.4,25.865292059695232,7.466666666666667,25.865292059695232,0,12.932646029847616" fill="#222" fill-opacity="0.11533333333333334" stroke="#000" stroke-opacity="0.02" transform="translate(119.46666666666664,38.797938089542846)"></polyline><polyline points="0,12.932646029847616,7.466666666666667,0,22.4,0,29.866666666666667,12.932646029847616,22.4,25.865292059695232,7.466666666666667,25.865292059695232,0,12.932646029847616" fill="#ddd" fill-opacity="0.08933333333333333" stroke="#000" stroke-opacity="0.02" transform="translate(7.466666666666665,51.73058411939046)"></polyline><polyline points="0,12.932646029847616,7.466666666666667,0,22.4,0,29.866666666666667,12.932646029847616,22.4,25.865292059695232,7.466666666666667,25.865292059695232,0,12.932646029847616" fill="#222" fill-opacity="0.028666666666666667" stroke="#000" stroke-opacity="0.02" transform="translate(29.866666666666664,38.797938089542846)"></polyline><polyline points="0,12.932646029847616,7.466666666666667,0,22.4,0,29.866666666666667,12.932646029847616,22.4,25.865292059695232,7.466666666666667,25.865292059695232,0,12.932646029847616" fill="#ddd" fill-opacity="0.08933333333333333" stroke="#000" stroke-opacity="0.02" transform="translate(52.26666666666665,51.73058411939046)"></polyline><polyline points="0,12.932646029847616,7.466666666666667,0,22.4,0,29.866666666666667,12.932646029847616,22.4,25.865292059695232,7.466666666666667,25.865292059695232,0,12.932646029847616" fill="#ddd" fill-opacity="0.03733333333333333" stroke="#000" stroke-opacity="0.02" transform="translate(74.66666666666666,38.797938089542846)"></polyline><polyline points="0,12.932646029847616,7.466666666666667,0,22.4,0,29.866666666666667,12.932646029847616,22.4,25.865292059695232,7.466666666666667,25.865292059695232,0,12.932646029847616" fill="#222" fill-opacity="0.08066666666666666" stroke="#000" stroke-opacity="0.02" transform="translate(97.06666666666666,51.73058411939046)"></polyline><polyline points="0,12.932646029847616,7.466666666666667,0,22.4,0,29.866666666666667,12.932646029847616,22.4,25.865292059695232,7.466666666666667,25.865292059695232,0,12.932646029847616" fill="#ddd" fill-opacity="0.07200000000000001" stroke="#000" stroke-opacity="0.02" transform="translate(-14.933333333333334,64.66323014923807)"></polyline><polyline points="0,12.932646029847616,7.466666666666667,0,22.4,0,29.866666666666667,12.932646029847616,22.4,25.865292059695232,7.466666666666667,25.865292059695232,0,12.932646029847616" fill="#ddd" fill-opacity="0.07200000000000001" stroke="#000" stroke-opacity="0.02" transform="translate(119.46666666666664,64.66323014923807)"></polyline><polyline points="0,12.932646029847616,7.466666666666667,0,22.4,0,29.866666666666667,12.932646029847616,22.4,25.865292059695232,7.466666666666667,25.865292059695232,0,12.932646029847616" fill="#ddd" fill-opacity="0.03733333333333333" stroke="#000" stroke-opacity="0.02" transform="translate(7.466666666666665,77.59587617908569)"></polyline><polyline points="0,12.932646029847616,7.466666666666667,0,22.4,0,29.866666666666667,12.932646029847616,22.4,25.865292059695232,7.466666666666667,25.865292059695232,0,12.932646029847616" fill="#222" fill-opacity="0.13266666666666665" stroke="#000" stroke-opacity="0.02" transform="translate(29.866666666666664,64.66323014923807)"></polyline><polyline points="0,12.932646029847616,7.466666666666667,0,22.4,0,29.866666666666667,12.932646029847616,22.4,25.865292059695232,7.466666666666667,25.865292059695232,0,12.932646029847616" fill="#ddd" fill-opacity="0.07200000000000001" stroke="#000" stroke-opacity="0.02" transform="translate(52.26666666666665,77.59587617908569)"></polyline><polyline points="0,12.932646029847616,7.466666666666667,0,22.4,0,29.866666666666667,12.932646029847616,22.4,25.865292059695232,7.466666666666667,25.865292059695232,0,12.932646029847616" fill="#222" fill-opacity="0.11533333333333334" stroke="#000" stroke-opacity="0.02" transform="translate(74.66666666666666,64.66323014923807)"></polyline><polyline points="0,12.932646029847616,7.466666666666667,0,22.4,0,29.866666666666667,12.932646029847616,22.4,25.865292059695232,7.466666666666667,25.865292059695232,0,12.932646029847616" fill="#222" fill-opacity="0.15" stroke="#000" stroke-opacity="0.02" transform="translate(97.06666666666666,77.59587617908569)"></polyline><polyline points="0,12.932646029847616,7.466666666666667,0,22.4,0,29.866666666666667,12.932646029847616,22.4,25.865292059695232,7.466666666666667,25.865292059695232,0,12.932646029847616" fill="#222" fill-opacity="0.098" stroke="#000" stroke-opacity="0.02" transform="translate(-14.933333333333334,90.52852220893331)"></polyline><polyline points="0,12.932646029847616,7.466666666666667,0,22.4,0,29.866666666666667,12.932646029847616,22.4,25.865292059695232,7.466666666666667,25.865292059695232,0,12.932646029847616" fill="#222" fill-opacity="0.098" stroke="#000" stroke-opacity="0.02" transform="translate(119.46666666666664,90.52852220893331)"></polyline><polyline points="0,12.932646029847616,7.466666666666667,0,22.4,0,29.866666666666667,12.932646029847616,22.4,25.865292059695232,7.466666666666667,25.865292059695232,0,12.932646029847616" fill="#222" fill-opacity="0.06333333333333334" stroke="#000" stroke-opacity="0.02" transform="translate(7.466666666666665,103.46116823878093)"></polyline><polyline points="0,12.932646029847616,7.466666666666667,0,22.4,0,29.866666666666667,12.932646029847616,22.4,25.865292059695232,7.466666666666667,25.865292059695232,0,12.932646029847616" fill="#222" fill-opacity="0.08066666666666666" stroke="#000" stroke-opacity="0.02" transform="translate(29.866666666666664,90.52852220893331)"></polyline><polyline points="0,12.932646029847616,7.466666666666667,0,22.4,0,29.866666666666667,12.932646029847616,22.4,25.865292059695232,7.466666666666667,25.865292059695232,0,12.932646029847616" fill="#222" fill-opacity="0.098" stroke="#000" stroke-opacity="0.02" transform="translate(52.26666666666665,103.46116823878093)"></polyline><polyline points="0,12.932646029847616,7.466666666666667,0,22.4,0,29.866666666666667,12.932646029847616,22.4,25.865292059695232,7.466666666666667,25.865292059695232,0,12.932646029847616" fill="#ddd" fill-opacity="0.08933333333333333" stroke="#000" stroke-opacity="0.02" transform="translate(74.66666666666666,90.52852220893331)"></polyline><polyline points="0,12.932646029847616,7.466666666666667,0,22.4,0,29.866666666666667,12.932646029847616,22.4,25.865292059695232,7.466666666666667,25.865292059695232,0,12.932646029847616" fill="#ddd" fill-opacity="0.03733333333333333" stroke="#000" stroke-opacity="0.02" transform="translate(97.06666666666666,103.46116823878093)"></polyline><polyline points="0,12.932646029847616,7.466666666666667,0,22.4,0,29.866666666666667,12.932646029847616,22.4,25.865292059695232,7.466666666666667,25.865292059695232,0,12.932646029847616" fill="#222" fill-opacity="0.15" stroke="#000" stroke-opacity="0.02" transform="translate(-14.933333333333334,116.39381426862853)"></polyline><polyline points="0,12.932646029847616,7.466666666666667,0,22.4,0,29.866666666666667,12.932646029847616,22.4,25.865292059695232,7.466666666666667,25.865292059695232,0,12.932646029847616" fill="#222" fill-opacity="0.15" stroke="#000" stroke-opacity="0.02" transform="translate(119.46666666666664,116.39381426862853)"></polyline><polyline points="0,12.932646029847616,7.466666666666667,0,22.4,0,29.866666666666667,12.932646029847616,22.4,25.865292059695232,7.466666666666667,25.865292059695232,0,12.932646029847616" fill="#ddd" fill-opacity="0.14133333333333334" stroke="#000" stroke-opacity="0.02" transform="translate(7.466666666666665,129.32646029847615)"></polyline><polyline points="0,12.932646029847616,7.466666666666667,0,22.4,0,29.866666666666667,12.932646029847616,22.4,25.865292059695232,7.466666666666667,25.865292059695232,0,12.932646029847616" fill="#ddd" fill-opacity="0.10666666666666667" stroke="#000" stroke-opacity="0.02" transform="translate(29.866666666666664,116.39381426862853)"></polyline><polyline points="0,12.932646029847616,7.466666666666667,0,22.4,0,29.866666666666667,12.932646029847616,22.4,25.865292059695232,7.466666666666667,25.865292059695232,0,12.932646029847616" fill="#ddd" fill-opacity="0.14133333333333334" stroke="#000" stroke-opacity="0.02" transform="translate(52.26666666666665,129.32646029847615)"></polyline><polyline points="0,12.932646029847616,7.466666666666667,0,22.4,0,29.866666666666667,12.932646029847616,22.4,25.865292059695232,7.466666666666667,25.865292059695232,0,12.932646029847616" fill="#222" fill-opacity="0.028666666666666667" stroke="#000" stroke-opacity="0.02" transform="translate(74.66666666666666,116.39381426862853)"></polyline><polyline points="0,12.932646029847616,7.466666666666667,0,22.4,0,29.866666666666667,12.932646029847616,22.4,25.865292059695232,7.466666666666667,25.865292059695232,0,12.932646029847616" fill="#222" fill-opacity="0.11533333333333334" stroke="#000" stroke-opacity="0.02" transform="translate(97.06666666666666,129.32646029847615)"></polyline></svg>